<mxfile host="app.diagrams.net" modified="2021-12-09T12:59:37.935Z" agent="5.0 (Macintosh; Intel Mac OS X 10_15_7) AppleWebKit/537.36 (KHTML, like Gecko) Chrome/96.0.4664.55 Safari/537.36" etag="t3JgbHFgKK4N3clZtkrt" version="15.9.1" type="github">
  <diagram id="mYWKdIMTAd7vH1PwYsd7" name="Page-1">
    <mxGraphModel dx="1031" dy="2180" grid="0" gridSize="10" guides="1" tooltips="1" connect="1" arrows="1" fold="1" page="1" pageScale="1" pageWidth="827" pageHeight="1169" math="0" shadow="0">
      <root>
        <mxCell id="0" />
        <mxCell id="1" parent="0" />
        <mxCell id="PKGVwSyj7gQ8EyxbClpJ-2" value="" style="sketch=0;points=[[0.015,0.015,0],[0.985,0.015,0],[0.985,0.985,0],[0.015,0.985,0],[0.25,0,0],[0.5,0,0],[0.75,0,0],[1,0.25,0],[1,0.5,0],[1,0.75,0],[0.75,1,0],[0.5,1,0],[0.25,1,0],[0,0.75,0],[0,0.5,0],[0,0.25,0]];verticalLabelPosition=bottom;html=1;verticalAlign=top;aspect=fixed;align=center;pointerEvents=1;shape=mxgraph.cisco19.server;fillColor=#005073;strokeColor=none;" vertex="1" parent="1">
          <mxGeometry x="148.5" y="250" width="27.500000000000004" height="50" as="geometry" />
        </mxCell>
        <mxCell id="PKGVwSyj7gQ8EyxbClpJ-13" value="&lt;font style=&quot;font-size: 11px&quot;&gt;VM: Master&lt;/font&gt;" style="text;html=1;strokeColor=#0e8088;fillColor=#b0e3e6;align=center;verticalAlign=middle;whiteSpace=wrap;rounded=0;" vertex="1" parent="1">
          <mxGeometry x="225.5" y="570" width="60" height="30" as="geometry" />
        </mxCell>
        <mxCell id="PKGVwSyj7gQ8EyxbClpJ-15" value="&lt;font style=&quot;font-size: 11px&quot;&gt;OpenSSH Client&lt;br&gt;NFS Server&lt;br&gt;MPICH&lt;br&gt;g++&lt;br&gt;gcc&lt;br&gt;HPL&lt;br&gt;&lt;/font&gt;" style="whiteSpace=wrap;html=1;aspect=fixed;dashed=1;" vertex="1" parent="1">
          <mxGeometry x="331.25" y="510" width="90" height="90" as="geometry" />
        </mxCell>
        <mxCell id="PKGVwSyj7gQ8EyxbClpJ-16" value="&lt;font style=&quot;font-size: 11px&quot;&gt;OpenSSH Server&lt;br&gt;NFS Common&lt;br&gt;MPICH&lt;br&gt;g++&lt;br&gt;gcc&lt;br&gt;HPL&lt;br&gt;&lt;/font&gt;" style="whiteSpace=wrap;html=1;aspect=fixed;dashed=1;" vertex="1" parent="1">
          <mxGeometry x="8.5" y="250" width="90" height="90" as="geometry" />
        </mxCell>
        <mxCell id="PKGVwSyj7gQ8EyxbClpJ-17" value="VM: Slave-4" style="text;html=1;strokeColor=none;fillColor=#b0e3e6;align=center;verticalAlign=middle;whiteSpace=wrap;rounded=0;fontSize=11;strokeWidth=1;imageAspect=1;" vertex="1" parent="1">
          <mxGeometry x="131" y="80" width="65" height="20" as="geometry" />
        </mxCell>
        <mxCell id="PKGVwSyj7gQ8EyxbClpJ-18" value="" style="sketch=0;aspect=fixed;html=1;points=[];align=center;image;fontSize=12;image=img/lib/mscae/VM_Linux.svg;dashed=1;" vertex="1" parent="1">
          <mxGeometry x="230.5" y="524" width="50" height="46" as="geometry" />
        </mxCell>
        <mxCell id="PKGVwSyj7gQ8EyxbClpJ-32" value="" style="sketch=0;points=[[0.015,0.015,0],[0.985,0.015,0],[0.985,0.985,0],[0.015,0.985,0],[0.25,0,0],[0.5,0,0],[0.75,0,0],[1,0.25,0],[1,0.5,0],[1,0.75,0],[0.75,1,0],[0.5,1,0],[0.25,1,0],[0,0.75,0],[0,0.5,0],[0,0.25,0]];verticalLabelPosition=bottom;html=1;verticalAlign=top;aspect=fixed;align=center;pointerEvents=1;shape=mxgraph.cisco19.server;fillColor=#005073;strokeColor=none;" vertex="1" parent="1">
          <mxGeometry x="148.5" y="360" width="27.500000000000004" height="50" as="geometry" />
        </mxCell>
        <mxCell id="PKGVwSyj7gQ8EyxbClpJ-34" value="&lt;font style=&quot;font-size: 11px&quot;&gt;OpenSSH Server&lt;br&gt;NFS Common&lt;br&gt;MPICH&lt;br&gt;g++&lt;br&gt;gcc&lt;br&gt;HPL&lt;br&gt;&lt;/font&gt;" style="whiteSpace=wrap;html=1;aspect=fixed;dashed=1;" vertex="1" parent="1">
          <mxGeometry x="8.5" y="360" width="90" height="90" as="geometry" />
        </mxCell>
        <mxCell id="PKGVwSyj7gQ8EyxbClpJ-35" value="" style="sketch=0;points=[[0.015,0.015,0],[0.985,0.015,0],[0.985,0.985,0],[0.015,0.985,0],[0.25,0,0],[0.5,0,0],[0.75,0,0],[1,0.25,0],[1,0.5,0],[1,0.75,0],[0.75,1,0],[0.5,1,0],[0.25,1,0],[0,0.75,0],[0,0.5,0],[0,0.25,0]];verticalLabelPosition=bottom;html=1;verticalAlign=top;aspect=fixed;align=center;pointerEvents=1;shape=mxgraph.cisco19.server;fillColor=#005073;strokeColor=none;" vertex="1" parent="1">
          <mxGeometry x="148.5" y="140" width="27.500000000000004" height="50" as="geometry" />
        </mxCell>
        <mxCell id="PKGVwSyj7gQ8EyxbClpJ-37" value="&lt;font style=&quot;font-size: 11px&quot;&gt;OpenSSH Server&lt;br&gt;NFS Common&lt;br&gt;MPICH&lt;br&gt;g++&lt;br&gt;gcc&lt;br&gt;HPL&lt;br&gt;&lt;/font&gt;" style="whiteSpace=wrap;html=1;aspect=fixed;dashed=1;" vertex="1" parent="1">
          <mxGeometry x="8.5" y="140" width="90" height="90" as="geometry" />
        </mxCell>
        <mxCell id="PKGVwSyj7gQ8EyxbClpJ-41" value="" style="sketch=0;points=[[0.015,0.015,0],[0.985,0.015,0],[0.985,0.985,0],[0.015,0.985,0],[0.25,0,0],[0.5,0,0],[0.75,0,0],[1,0.25,0],[1,0.5,0],[1,0.75,0],[0.75,1,0],[0.5,1,0],[0.25,1,0],[0,0.75,0],[0,0.5,0],[0,0.25,0]];verticalLabelPosition=bottom;html=1;verticalAlign=top;aspect=fixed;align=center;pointerEvents=1;shape=mxgraph.cisco19.server;fillColor=#005073;strokeColor=none;" vertex="1" parent="1">
          <mxGeometry x="149.75" y="30" width="27.500000000000004" height="50" as="geometry" />
        </mxCell>
        <mxCell id="PKGVwSyj7gQ8EyxbClpJ-43" value="&lt;font style=&quot;font-size: 11px&quot;&gt;OpenSSH Server&lt;br&gt;NFS Common&lt;br&gt;MPICH&lt;br&gt;g++&lt;br&gt;gcc&lt;br&gt;HPL&lt;br&gt;&lt;/font&gt;" style="whiteSpace=wrap;html=1;aspect=fixed;dashed=1;" vertex="1" parent="1">
          <mxGeometry x="9.75" y="20" width="90" height="90" as="geometry" />
        </mxCell>
        <mxCell id="PKGVwSyj7gQ8EyxbClpJ-44" value="" style="sketch=0;points=[[0.015,0.015,0],[0.985,0.015,0],[0.985,0.985,0],[0.015,0.985,0],[0.25,0,0],[0.5,0,0],[0.75,0,0],[1,0.25,0],[1,0.5,0],[1,0.75,0],[0.75,1,0],[0.5,1,0],[0.25,1,0],[0,0.75,0],[0,0.5,0],[0,0.25,0]];verticalLabelPosition=bottom;html=1;verticalAlign=top;aspect=fixed;align=center;pointerEvents=1;shape=mxgraph.cisco19.server;fillColor=#005073;strokeColor=none;" vertex="1" parent="1">
          <mxGeometry x="348.5" y="30" width="27.500000000000004" height="50" as="geometry" />
        </mxCell>
        <mxCell id="PKGVwSyj7gQ8EyxbClpJ-46" value="&lt;font style=&quot;font-size: 11px&quot;&gt;OpenSSH Server&lt;br&gt;NFS Common&lt;br&gt;MPICH&lt;br&gt;g++&lt;br&gt;gcc&lt;br&gt;HPL&lt;br&gt;&lt;/font&gt;" style="whiteSpace=wrap;html=1;aspect=fixed;dashed=1;" vertex="1" parent="1">
          <mxGeometry x="418.5" y="20" width="90" height="90" as="geometry" />
        </mxCell>
        <mxCell id="PKGVwSyj7gQ8EyxbClpJ-49" value="&lt;font style=&quot;font-size: 18px&quot;&gt;Hypervisor (Parallels)&lt;/font&gt;" style="rounded=0;whiteSpace=wrap;html=1;fontSize=11;fillColor=#bac8d3;strokeColor=#23445d;" vertex="1" parent="1">
          <mxGeometry x="38.5" y="645" width="440" height="30" as="geometry" />
        </mxCell>
        <mxCell id="PKGVwSyj7gQ8EyxbClpJ-115" style="edgeStyle=orthogonalEdgeStyle;rounded=0;orthogonalLoop=1;jettySize=auto;html=1;exitX=0;exitY=0.5;exitDx=0;exitDy=0;entryX=0.25;entryY=0;entryDx=0;entryDy=0;fontSize=12;startArrow=classic;startFill=1;endArrow=none;endFill=0;" edge="1" parent="1" source="PKGVwSyj7gQ8EyxbClpJ-70" target="PKGVwSyj7gQ8EyxbClpJ-50">
          <mxGeometry relative="1" as="geometry">
            <Array as="points">
              <mxPoint x="159" y="515" />
            </Array>
          </mxGeometry>
        </mxCell>
        <mxCell id="PKGVwSyj7gQ8EyxbClpJ-50" value="&lt;font style=&quot;font-size: 16px&quot;&gt;VM Network Services Driver&lt;/font&gt;" style="rounded=0;whiteSpace=wrap;html=1;fontSize=18;fillColor=#fad7ac;strokeColor=#b46504;" vertex="1" parent="1">
          <mxGeometry x="58.5" y="620" width="400" height="20" as="geometry" />
        </mxCell>
        <mxCell id="PKGVwSyj7gQ8EyxbClpJ-54" value="" style="sketch=0;points=[[0.015,0.015,0],[0.985,0.015,0],[0.985,0.985,0],[0.015,0.985,0],[0.25,0,0],[0.5,0,0],[0.75,0,0],[1,0.25,0],[1,0.5,0],[1,0.75,0],[0.75,1,0],[0.5,1,0],[0.25,1,0],[0,0.75,0],[0,0.5,0],[0,0.25,0]];verticalLabelPosition=bottom;html=1;verticalAlign=top;aspect=fixed;align=center;pointerEvents=1;shape=mxgraph.cisco19.server;fillColor=#005073;strokeColor=none;" vertex="1" parent="1">
          <mxGeometry x="348.5" y="140" width="27.500000000000004" height="50" as="geometry" />
        </mxCell>
        <mxCell id="PKGVwSyj7gQ8EyxbClpJ-56" value="&lt;font style=&quot;font-size: 11px&quot;&gt;OpenSSH Server&lt;br&gt;NFS Common&lt;br&gt;MPICH&lt;br&gt;g++&lt;br&gt;gcc&lt;br&gt;HPL&lt;br&gt;&lt;/font&gt;" style="whiteSpace=wrap;html=1;aspect=fixed;dashed=1;" vertex="1" parent="1">
          <mxGeometry x="418.5" y="140" width="90" height="90" as="geometry" />
        </mxCell>
        <mxCell id="PKGVwSyj7gQ8EyxbClpJ-57" value="" style="sketch=0;points=[[0.015,0.015,0],[0.985,0.015,0],[0.985,0.985,0],[0.015,0.985,0],[0.25,0,0],[0.5,0,0],[0.75,0,0],[1,0.25,0],[1,0.5,0],[1,0.75,0],[0.75,1,0],[0.5,1,0],[0.25,1,0],[0,0.75,0],[0,0.5,0],[0,0.25,0]];verticalLabelPosition=bottom;html=1;verticalAlign=top;aspect=fixed;align=center;pointerEvents=1;shape=mxgraph.cisco19.server;fillColor=#005073;strokeColor=none;" vertex="1" parent="1">
          <mxGeometry x="348.5" y="250" width="27.500000000000004" height="50" as="geometry" />
        </mxCell>
        <mxCell id="PKGVwSyj7gQ8EyxbClpJ-59" value="&lt;font style=&quot;font-size: 11px&quot;&gt;OpenSSH Server&lt;br&gt;NFS Common&lt;br&gt;MPICH&lt;br&gt;g++&lt;br&gt;gcc&lt;br&gt;HPL&lt;br&gt;&lt;/font&gt;" style="whiteSpace=wrap;html=1;aspect=fixed;dashed=1;" vertex="1" parent="1">
          <mxGeometry x="418.5" y="250" width="90" height="90" as="geometry" />
        </mxCell>
        <mxCell id="PKGVwSyj7gQ8EyxbClpJ-60" value="" style="sketch=0;points=[[0.015,0.015,0],[0.985,0.015,0],[0.985,0.985,0],[0.015,0.985,0],[0.25,0,0],[0.5,0,0],[0.75,0,0],[1,0.25,0],[1,0.5,0],[1,0.75,0],[0.75,1,0],[0.5,1,0],[0.25,1,0],[0,0.75,0],[0,0.5,0],[0,0.25,0]];verticalLabelPosition=bottom;html=1;verticalAlign=top;aspect=fixed;align=center;pointerEvents=1;shape=mxgraph.cisco19.server;fillColor=#005073;strokeColor=none;" vertex="1" parent="1">
          <mxGeometry x="348.5" y="360" width="27.500000000000004" height="50" as="geometry" />
        </mxCell>
        <mxCell id="PKGVwSyj7gQ8EyxbClpJ-62" value="&lt;font style=&quot;font-size: 11px&quot;&gt;OpenSSH Server&lt;br&gt;NFS Common&lt;br&gt;MPICH&lt;br&gt;g++&lt;br&gt;gcc&lt;br&gt;HPL&lt;br&gt;&lt;/font&gt;" style="whiteSpace=wrap;html=1;aspect=fixed;dashed=1;" vertex="1" parent="1">
          <mxGeometry x="418.5" y="360" width="90" height="90" as="geometry" />
        </mxCell>
        <mxCell id="PKGVwSyj7gQ8EyxbClpJ-63" value="VM: Slave-3" style="text;html=1;strokeColor=none;fillColor=#b0e3e6;align=center;verticalAlign=middle;whiteSpace=wrap;rounded=0;fontSize=11;" vertex="1" parent="1">
          <mxGeometry x="131" y="190" width="65" height="20" as="geometry" />
        </mxCell>
        <mxCell id="PKGVwSyj7gQ8EyxbClpJ-64" value="VM: Slave-2" style="text;html=1;strokeColor=none;fillColor=#b0e3e6;align=center;verticalAlign=middle;whiteSpace=wrap;rounded=0;dashed=1;fontSize=11;" vertex="1" parent="1">
          <mxGeometry x="131.5" y="300" width="65" height="20" as="geometry" />
        </mxCell>
        <mxCell id="PKGVwSyj7gQ8EyxbClpJ-65" value="VM: Slave-1" style="text;html=1;strokeColor=none;fillColor=#b0e3e6;align=center;verticalAlign=middle;whiteSpace=wrap;rounded=0;dashed=1;fontSize=11;" vertex="1" parent="1">
          <mxGeometry x="129.75" y="410" width="65" height="20" as="geometry" />
        </mxCell>
        <mxCell id="PKGVwSyj7gQ8EyxbClpJ-66" value="VM: Slave-5" style="text;html=1;strokeColor=none;fillColor=#b0e3e6;align=center;verticalAlign=middle;whiteSpace=wrap;rounded=0;dashed=1;fontSize=11;" vertex="1" parent="1">
          <mxGeometry x="329.75" y="80" width="65" height="20" as="geometry" />
        </mxCell>
        <mxCell id="PKGVwSyj7gQ8EyxbClpJ-67" value="VM: Slave-6" style="text;html=1;strokeColor=none;fillColor=#b0e3e6;align=center;verticalAlign=middle;whiteSpace=wrap;rounded=0;dashed=1;fontSize=11;" vertex="1" parent="1">
          <mxGeometry x="329.75" y="190" width="65" height="20" as="geometry" />
        </mxCell>
        <mxCell id="PKGVwSyj7gQ8EyxbClpJ-68" value="VM: Slave-7" style="text;html=1;strokeColor=none;fillColor=#b0e3e6;align=center;verticalAlign=middle;whiteSpace=wrap;rounded=0;dashed=1;fontSize=11;" vertex="1" parent="1">
          <mxGeometry x="329.75" y="300" width="65" height="20" as="geometry" />
        </mxCell>
        <mxCell id="PKGVwSyj7gQ8EyxbClpJ-69" value="VM: Slave-8" style="text;html=1;strokeColor=none;fillColor=#b0e3e6;align=center;verticalAlign=middle;whiteSpace=wrap;rounded=0;dashed=1;fontSize=11;" vertex="1" parent="1">
          <mxGeometry x="329.75" y="410" width="65" height="20" as="geometry" />
        </mxCell>
        <mxCell id="PKGVwSyj7gQ8EyxbClpJ-70" value="10.211.55.11" style="text;html=1;strokeColor=#b46504;fillColor=#fad7ac;align=center;verticalAlign=middle;whiteSpace=wrap;rounded=0;fontSize=11;" vertex="1" parent="1">
          <mxGeometry x="227" y="506" width="63" height="18" as="geometry" />
        </mxCell>
        <mxCell id="PKGVwSyj7gQ8EyxbClpJ-72" value="10.211.55.12" style="text;html=1;strokeColor=#b46504;fillColor=#fad7ac;align=center;verticalAlign=middle;whiteSpace=wrap;rounded=0;fontSize=11;" vertex="1" parent="1">
          <mxGeometry x="128.38" y="350" width="66.25" height="20" as="geometry" />
        </mxCell>
        <mxCell id="PKGVwSyj7gQ8EyxbClpJ-73" value="10.211.55.13" style="text;html=1;strokeColor=#b46504;fillColor=#fad7ac;align=center;verticalAlign=middle;whiteSpace=wrap;rounded=0;fontSize=11;" vertex="1" parent="1">
          <mxGeometry x="127.63" y="240" width="67" height="20" as="geometry" />
        </mxCell>
        <mxCell id="PKGVwSyj7gQ8EyxbClpJ-74" value="10.211.55.14" style="text;html=1;strokeColor=#b46504;fillColor=#fad7ac;align=center;verticalAlign=middle;whiteSpace=wrap;rounded=0;fontSize=11;" vertex="1" parent="1">
          <mxGeometry x="127.63" y="130" width="67" height="20" as="geometry" />
        </mxCell>
        <mxCell id="PKGVwSyj7gQ8EyxbClpJ-75" value="10.211.55.15" style="text;html=1;strokeColor=#b46504;fillColor=#fad7ac;align=center;verticalAlign=middle;whiteSpace=wrap;rounded=0;fontSize=11;" vertex="1" parent="1">
          <mxGeometry x="127.63" y="20" width="67" height="20" as="geometry" />
        </mxCell>
        <mxCell id="PKGVwSyj7gQ8EyxbClpJ-76" value="10.211.55.16" style="text;html=1;strokeColor=#b46504;fillColor=#fad7ac;align=center;verticalAlign=middle;whiteSpace=wrap;rounded=0;fontSize=11;" vertex="1" parent="1">
          <mxGeometry x="325.38" y="20" width="68.75" height="20" as="geometry" />
        </mxCell>
        <mxCell id="PKGVwSyj7gQ8EyxbClpJ-77" value="10.211.55.17" style="text;html=1;strokeColor=#b46504;fillColor=#fad7ac;align=center;verticalAlign=middle;whiteSpace=wrap;rounded=0;fontSize=11;" vertex="1" parent="1">
          <mxGeometry x="326" y="130" width="68.75" height="20" as="geometry" />
        </mxCell>
        <mxCell id="PKGVwSyj7gQ8EyxbClpJ-78" value="10.211.55.18" style="text;html=1;strokeColor=#b46504;fillColor=#fad7ac;align=center;verticalAlign=middle;whiteSpace=wrap;rounded=0;fontSize=11;" vertex="1" parent="1">
          <mxGeometry x="326" y="240" width="68.75" height="20" as="geometry" />
        </mxCell>
        <mxCell id="PKGVwSyj7gQ8EyxbClpJ-79" value="10.211.55.24" style="text;html=1;strokeColor=#b46504;fillColor=#fad7ac;align=center;verticalAlign=middle;whiteSpace=wrap;rounded=0;fontSize=11;" vertex="1" parent="1">
          <mxGeometry x="325.38" y="350" width="68.75" height="20" as="geometry" />
        </mxCell>
        <mxCell id="PKGVwSyj7gQ8EyxbClpJ-80" value="" style="endArrow=none;html=1;rounded=0;fontSize=11;exitX=0.5;exitY=0;exitDx=0;exitDy=0;" edge="1" parent="1" source="PKGVwSyj7gQ8EyxbClpJ-70">
          <mxGeometry width="50" height="50" relative="1" as="geometry">
            <mxPoint x="257" y="500" as="sourcePoint" />
            <mxPoint x="257" y="50" as="targetPoint" />
          </mxGeometry>
        </mxCell>
        <mxCell id="PKGVwSyj7gQ8EyxbClpJ-83" style="edgeStyle=orthogonalEdgeStyle;rounded=0;orthogonalLoop=1;jettySize=auto;html=1;exitX=0;exitY=0.5;exitDx=0;exitDy=0;exitPerimeter=0;fontSize=11;entryX=1;entryY=0.5;entryDx=0;entryDy=0;entryPerimeter=0;endArrow=none;endFill=0;" edge="1" parent="1">
          <mxGeometry relative="1" as="geometry">
            <mxPoint x="176" y="160" as="targetPoint" />
            <mxPoint x="348.5" y="160" as="sourcePoint" />
          </mxGeometry>
        </mxCell>
        <mxCell id="PKGVwSyj7gQ8EyxbClpJ-84" style="edgeStyle=orthogonalEdgeStyle;rounded=0;orthogonalLoop=1;jettySize=auto;html=1;exitX=0;exitY=0.5;exitDx=0;exitDy=0;exitPerimeter=0;fontSize=11;entryX=1;entryY=0.5;entryDx=0;entryDy=0;entryPerimeter=0;endArrow=none;endFill=0;" edge="1" parent="1">
          <mxGeometry relative="1" as="geometry">
            <mxPoint x="176" y="50" as="targetPoint" />
            <mxPoint x="348.5" y="50" as="sourcePoint" />
          </mxGeometry>
        </mxCell>
        <mxCell id="PKGVwSyj7gQ8EyxbClpJ-85" style="edgeStyle=orthogonalEdgeStyle;rounded=0;orthogonalLoop=1;jettySize=auto;html=1;exitX=0;exitY=0.5;exitDx=0;exitDy=0;exitPerimeter=0;fontSize=11;entryX=1;entryY=0.5;entryDx=0;entryDy=0;entryPerimeter=0;endArrow=none;endFill=0;" edge="1" parent="1">
          <mxGeometry relative="1" as="geometry">
            <mxPoint x="176" y="270" as="targetPoint" />
            <mxPoint x="348.5" y="270" as="sourcePoint" />
          </mxGeometry>
        </mxCell>
        <mxCell id="PKGVwSyj7gQ8EyxbClpJ-86" style="edgeStyle=orthogonalEdgeStyle;rounded=0;orthogonalLoop=1;jettySize=auto;html=1;exitX=0;exitY=0.5;exitDx=0;exitDy=0;exitPerimeter=0;fontSize=11;entryX=1;entryY=0.5;entryDx=0;entryDy=0;entryPerimeter=0;endArrow=none;endFill=0;" edge="1" parent="1">
          <mxGeometry relative="1" as="geometry">
            <mxPoint x="176" y="380" as="targetPoint" />
            <mxPoint x="348.5" y="380" as="sourcePoint" />
          </mxGeometry>
        </mxCell>
        <mxCell id="PKGVwSyj7gQ8EyxbClpJ-88" value="&lt;font style=&quot;font-size: 12px&quot;&gt;Process Receivers&lt;/font&gt;" style="rounded=0;whiteSpace=wrap;html=1;fontSize=11;fillColor=#b0e3e6;strokeColor=#0e8088;" vertex="1" parent="1">
          <mxGeometry x="48.5" y="-20" width="420" height="30" as="geometry" />
        </mxCell>
        <mxCell id="PKGVwSyj7gQ8EyxbClpJ-96" value="" style="endArrow=classic;html=1;rounded=0;fontSize=12;entryX=0;entryY=0.75;entryDx=0;entryDy=0;entryPerimeter=0;dashed=1;" edge="1" parent="1" target="PKGVwSyj7gQ8EyxbClpJ-35">
          <mxGeometry width="50" height="50" relative="1" as="geometry">
            <mxPoint x="98.5" y="178" as="sourcePoint" />
            <mxPoint x="115.5" y="150" as="targetPoint" />
          </mxGeometry>
        </mxCell>
        <mxCell id="PKGVwSyj7gQ8EyxbClpJ-98" value="" style="endArrow=classic;html=1;rounded=0;fontSize=12;entryX=0;entryY=0.75;entryDx=0;entryDy=0;entryPerimeter=0;dashed=1;" edge="1" parent="1">
          <mxGeometry width="50" height="50" relative="1" as="geometry">
            <mxPoint x="99.75" y="65" as="sourcePoint" />
            <mxPoint x="149.75" y="64.5" as="targetPoint" />
          </mxGeometry>
        </mxCell>
        <mxCell id="PKGVwSyj7gQ8EyxbClpJ-99" value="" style="endArrow=classic;html=1;rounded=0;fontSize=12;entryX=0;entryY=0.75;entryDx=0;entryDy=0;entryPerimeter=0;dashed=1;" edge="1" parent="1">
          <mxGeometry width="50" height="50" relative="1" as="geometry">
            <mxPoint x="98.5" y="285" as="sourcePoint" />
            <mxPoint x="148.5" y="284.5" as="targetPoint" />
          </mxGeometry>
        </mxCell>
        <mxCell id="PKGVwSyj7gQ8EyxbClpJ-101" value="" style="endArrow=classic;html=1;rounded=0;fontSize=12;entryX=0;entryY=0.75;entryDx=0;entryDy=0;entryPerimeter=0;dashed=1;" edge="1" parent="1">
          <mxGeometry width="50" height="50" relative="1" as="geometry">
            <mxPoint x="98.5" y="395" as="sourcePoint" />
            <mxPoint x="148.5" y="394.5" as="targetPoint" />
          </mxGeometry>
        </mxCell>
        <mxCell id="PKGVwSyj7gQ8EyxbClpJ-102" value="" style="endArrow=classic;html=1;rounded=0;fontSize=12;entryX=0;entryY=0.75;entryDx=0;entryDy=0;entryPerimeter=0;dashed=1;" edge="1" parent="1">
          <mxGeometry width="50" height="50" relative="1" as="geometry">
            <mxPoint x="418.5" y="65" as="sourcePoint" />
            <mxPoint x="376" y="64.5" as="targetPoint" />
          </mxGeometry>
        </mxCell>
        <mxCell id="PKGVwSyj7gQ8EyxbClpJ-105" value="" style="endArrow=classic;html=1;rounded=0;fontSize=12;entryX=1;entryY=0.75;entryDx=0;entryDy=0;entryPerimeter=0;dashed=1;" edge="1" parent="1" target="PKGVwSyj7gQ8EyxbClpJ-54">
          <mxGeometry width="50" height="50" relative="1" as="geometry">
            <mxPoint x="418.5" y="178" as="sourcePoint" />
            <mxPoint x="386" y="74.5" as="targetPoint" />
          </mxGeometry>
        </mxCell>
        <mxCell id="PKGVwSyj7gQ8EyxbClpJ-108" value="" style="endArrow=classic;html=1;rounded=0;fontSize=12;entryX=1;entryY=0.75;entryDx=0;entryDy=0;entryPerimeter=0;dashed=1;" edge="1" parent="1">
          <mxGeometry width="50" height="50" relative="1" as="geometry">
            <mxPoint x="418.5" y="285" as="sourcePoint" />
            <mxPoint x="376" y="284.5" as="targetPoint" />
          </mxGeometry>
        </mxCell>
        <mxCell id="PKGVwSyj7gQ8EyxbClpJ-109" value="" style="endArrow=classic;html=1;rounded=0;fontSize=12;entryX=1;entryY=0.75;entryDx=0;entryDy=0;entryPerimeter=0;dashed=1;" edge="1" parent="1">
          <mxGeometry width="50" height="50" relative="1" as="geometry">
            <mxPoint x="418.5" y="395" as="sourcePoint" />
            <mxPoint x="376" y="394.5" as="targetPoint" />
          </mxGeometry>
        </mxCell>
        <mxCell id="PKGVwSyj7gQ8EyxbClpJ-110" value="&lt;font style=&quot;font-size: 12px&quot;&gt;Process Sender&lt;/font&gt;" style="rounded=0;whiteSpace=wrap;html=1;fontSize=11;fillColor=#b0e3e6;strokeColor=#0e8088;" vertex="1" parent="1">
          <mxGeometry x="190.5" y="595" width="130" height="20" as="geometry" />
        </mxCell>
        <mxCell id="PKGVwSyj7gQ8EyxbClpJ-113" value="" style="endArrow=classic;html=1;rounded=0;fontSize=12;entryX=1;entryY=0.75;entryDx=0;entryDy=0;entryPerimeter=0;dashed=1;" edge="1" parent="1">
          <mxGeometry width="50" height="50" relative="1" as="geometry">
            <mxPoint x="330" y="540" as="sourcePoint" />
            <mxPoint x="280.5" y="540" as="targetPoint" />
          </mxGeometry>
        </mxCell>
        <mxCell id="PKGVwSyj7gQ8EyxbClpJ-117" value="&lt;b&gt;Master:&amp;nbsp;&lt;/b&gt;&lt;span style=&quot;font-size: 11px&quot;&gt;10.211.55.11&lt;br&gt;&lt;b&gt;Slave-1:&lt;/b&gt;&amp;nbsp;&lt;/span&gt;&lt;span style=&quot;font-size: 11px&quot;&gt;10.211.55.12&lt;br&gt;&lt;/span&gt;&lt;span style=&quot;font-size: 11px&quot;&gt;&lt;b&gt;Slave-2:&lt;/b&gt;&amp;nbsp;&lt;/span&gt;&lt;span style=&quot;font-size: 11px&quot;&gt;10.211.55.13&lt;/span&gt;&lt;span style=&quot;font-size: 11px&quot;&gt;&lt;br&gt;&lt;/span&gt;&lt;span style=&quot;font-size: 11px&quot;&gt;&lt;b&gt;Slave-3:&lt;/b&gt;&amp;nbsp;&lt;/span&gt;&lt;span style=&quot;font-size: 11px&quot;&gt;10.211.55.14&lt;/span&gt;&lt;span style=&quot;font-size: 11px&quot;&gt;&lt;br&gt;&lt;/span&gt;&lt;span style=&quot;font-size: 11px&quot;&gt;&lt;b&gt;Slave-4:&lt;/b&gt;&amp;nbsp;&lt;/span&gt;&lt;span style=&quot;font-size: 11px&quot;&gt;10.211.55.15&lt;/span&gt;&lt;span style=&quot;font-size: 11px&quot;&gt;&lt;br&gt;&lt;/span&gt;&lt;span style=&quot;font-size: 11px&quot;&gt;&lt;b&gt;Slave-5:&lt;/b&gt;&amp;nbsp;&lt;/span&gt;&lt;span style=&quot;font-size: 11px&quot;&gt;10.211.55.16&lt;/span&gt;&lt;span style=&quot;font-size: 11px&quot;&gt;&lt;br&gt;&lt;/span&gt;&lt;span style=&quot;font-size: 11px&quot;&gt;&lt;b&gt;Slave-6:&lt;/b&gt;&amp;nbsp;&lt;/span&gt;&lt;span style=&quot;font-size: 11px&quot;&gt;10.211.55.17&lt;/span&gt;&lt;span style=&quot;font-size: 11px&quot;&gt;&lt;br&gt;&lt;/span&gt;&lt;span style=&quot;font-size: 11px&quot;&gt;&lt;b&gt;Slave-7:&lt;/b&gt;&amp;nbsp;&lt;/span&gt;&lt;span style=&quot;font-size: 11px&quot;&gt;10.211.55.18&lt;/span&gt;&lt;span style=&quot;font-size: 11px&quot;&gt;&lt;br&gt;&lt;/span&gt;&lt;span style=&quot;font-size: 11px&quot;&gt;&lt;b&gt;Slave-8:&lt;/b&gt;&amp;nbsp;&lt;/span&gt;&lt;span style=&quot;font-size: 11px&quot;&gt;10.211.55.24&lt;/span&gt;&lt;span style=&quot;font-size: 11px&quot;&gt;&lt;br&gt;&lt;/span&gt;" style="whiteSpace=wrap;html=1;aspect=fixed;rounded=0;fontSize=12;strokeColor=default;strokeWidth=1;fillColor=default;gradientColor=none;align=center;" vertex="1" parent="1">
          <mxGeometry x="492.5" y="479" width="161" height="161" as="geometry" />
        </mxCell>
        <mxCell id="PKGVwSyj7gQ8EyxbClpJ-118" value="&lt;font style=&quot;font-size: 13px&quot;&gt;&lt;b&gt;Static IP Table&lt;/b&gt;&lt;/font&gt;" style="text;html=1;strokeColor=none;fillColor=none;align=center;verticalAlign=middle;whiteSpace=wrap;rounded=0;fontSize=12;" vertex="1" parent="1">
          <mxGeometry x="526.25" y="460" width="93.5" height="19" as="geometry" />
        </mxCell>
        <mxCell id="PKGVwSyj7gQ8EyxbClpJ-119" value="&lt;b style=&quot;font-size: 12px&quot;&gt;Network:&amp;nbsp;&lt;/b&gt;&lt;span style=&quot;font-size: 12px&quot;&gt;10.211.55.0/24&lt;/span&gt;&lt;br style=&quot;font-size: 12px&quot;&gt;&lt;b style=&quot;font-size: 12px&quot;&gt;Broadcast:&lt;/b&gt;&lt;span style=&quot;font-size: 12px&quot;&gt;&amp;nbsp;10.211.55.255&lt;/span&gt;" style="text;html=1;strokeColor=none;fillColor=none;align=center;verticalAlign=middle;whiteSpace=wrap;rounded=0;fontSize=13;" vertex="1" parent="1">
          <mxGeometry x="543" y="645" width="60" height="30" as="geometry" />
        </mxCell>
        <mxCell id="PKGVwSyj7gQ8EyxbClpJ-121" style="edgeStyle=orthogonalEdgeStyle;rounded=0;orthogonalLoop=1;jettySize=auto;html=1;exitX=0;exitY=1;exitDx=0;exitDy=0;entryX=1;entryY=1;entryDx=0;entryDy=0;fontSize=13;startArrow=none;startFill=0;endArrow=none;endFill=0;" edge="1" parent="1" source="PKGVwSyj7gQ8EyxbClpJ-117" target="PKGVwSyj7gQ8EyxbClpJ-117">
          <mxGeometry relative="1" as="geometry">
            <Array as="points">
              <mxPoint x="493" y="675" />
              <mxPoint x="654" y="675" />
            </Array>
          </mxGeometry>
        </mxCell>
      </root>
    </mxGraphModel>
  </diagram>
</mxfile>
